<?xml version="1.0" encoding="UTF-8" standalone="no"?>
<svg
   xmlns:dc="http://purl.org/dc/elements/1.1/"
   xmlns:cc="http://creativecommons.org/ns#"
   xmlns:rdf="http://www.w3.org/1999/02/22-rdf-syntax-ns#"
   xmlns:svg="http://www.w3.org/2000/svg"
   xmlns="http://www.w3.org/2000/svg"
   xmlns:sodipodi="http://sodipodi.sourceforge.net/DTD/sodipodi-0.dtd"
   xmlns:inkscape="http://www.inkscape.org/namespaces/inkscape"
   width="931.03821"
   height="821.83453"
   viewBox="0 0 931.03821 821.83453"
   fill="none"
   version="1.1"
   id="svg1210"
   sodipodi:docname="peoples.svg"
   inkscape:version="1.0 (4035a4fb49, 2020-05-01)">
  <metadata
     id="metadata1214">
    <rdf:RDF>
      <cc:Work
         rdf:about="">
        <dc:format>image/svg+xml</dc:format>
        <dc:type
           rdf:resource="http://purl.org/dc/dcmitype/StillImage" />
        <dc:title></dc:title>
      </cc:Work>
    </rdf:RDF>
  </metadata>
  <sodipodi:namedview
     fit-margin-bottom="0"
     fit-margin-right="0"
     fit-margin-left="0"
     fit-margin-top="0"
     inkscape:document-rotation="0"
     pagecolor="#ffffff"
     bordercolor="#666666"
     borderopacity="1"
     objecttolerance="10"
     gridtolerance="10"
     guidetolerance="10"
     inkscape:pageopacity="0"
     inkscape:pageshadow="2"
     inkscape:window-width="2880"
     inkscape:window-height="1586"
     id="namedview1212"
     showgrid="false"
     inkscape:zoom="0.77613636"
     inkscape:cx="1084.3487"
     inkscape:cy="591.35941"
     inkscape:window-x="2869"
     inkscape:window-y="-11"
     inkscape:window-maximized="1"
     inkscape:current-layer="svg1210" />
  <mask
     id="mask0"
     mask-type="alpha"
     maskUnits="userSpaceOnUse"
     x="0"
     y="0"
     width="1440"
     height="880">
    <rect
       y="0"
       x="0"
       width="1440"
       height="880"
       fill="#ffffff"
       id="rect619" />
  </mask>
  <g
     transform="translate(-508.9618,-58.065437)"
     mask="url(#mask0)"
     id="g1184">
    <path
       style="fill:url(#paint1_linear)"
       opacity="0.158203"
       fill-rule="evenodd"
       clip-rule="evenodd"
       d="M 1440,438.2 552.3,660.5 c -30.7,7.7 -49.3,38.8 -41.6,69.5 l 37.5,149.9 H 1440 Z"
       fill="url(#paint1_linear)"
       id="path624" />
    <path
       d="m 1332.9,364.3 c 0,0 5.4,8 -4.4,17.2 -16.7,15.7 -38.4,24.3 -42.5,26.1 -4.2,1.8 -16.9,4.8 -21.2,-0.8 -4.3,-5.6 8.8,-16.1 8.8,-16.1 0,0 14.7,-8.1 27.9,-16.6 13.3,-8.4 31.4,-9.8 31.4,-9.8 z"
       fill="#aebddc"
       id="path626" />
    <path
       d="m 1244.9,348.7 c 0,0 16.2,-8.1 17.6,-4.1 5.9,17.8 15.1,37.1 16,41.5 1,4.4 1.4,17.5 -4.9,20.6 -6.3,3.1 -14.1,-11.7 -14.1,-11.7 0,0 -5.1,-16 -10.9,-30.6 -5.7,-14.6 -3.7,-15.7 -3.7,-15.7 z"
       fill="#aebddc"
       id="path628" />
    <path
       d="m 1317.9,363.9 c 0.4,4.7 2.9,8.8 5.6,9 2.5,0 5,0 7.5,0 2.7,-0.2 5.2,-4.3 5.6,-9 0.6,-7.7 1.2,-15.5 1.9,-23.2 0.4,-4.6 -1.4,-14 -5.4,-16.7 -3.7,-2.4 -7.9,-2.4 -11.6,0 -4,2.8 -5.8,12.1 -5.4,16.7 0.6,7.7 1.2,15.4 1.8,23.2 z"
       fill="#ffc4ad"
       id="path630" />
    <path
       d="m 1375.8,441.8 -20.2,32.8 c 0,0 30,-14.4 28.5,-27.9 -1.6,-13.4 -8.3,-4.9 -8.3,-4.9 z"
       fill="#ffc4ad"
       id="path632" />
    <path
       d="m 1329,479.1 c 0,0 -11.3,53.4 -23,81.7 -10.4,25.1 -22.5,-7.5 -22.5,-7.5 l 19,-97.1 31.3,-2.4 c 0,-0.1 2.1,0.7 -4.8,25.3 z"
       fill="#194866"
       id="path634" />
    <path
       d="m 1326.4,454 -3.8,41.6 5.4,3.2 c 0,0 3.1,61.7 4.2,64.9 5.9,17.9 21.1,7.1 23.1,1.2 2.1,-6 5.5,-50 4.8,-82.2 -0.7,-32.2 -0.7,-32.2 -0.7,-32.2 z"
       fill="#194866"
       id="path636" />
    <path
       d="m 1299.2,376.1 20.1,-10.3 5.4,2.2 15.6,-1.7 24.1,8.3 c 0,0 4.9,6.4 0.5,29.3 -4.4,22.8 -4.8,59.7 -4.8,59.7 l -60.2,3.6 c 0,0.1 -8,-96.1 -0.7,-91.1 z"
       fill="#cfd9e8"
       id="path638" />
    <path
       d="m 1354.1,375.6 c 0,0 8.2,-7.1 17.6,6 14,19.4 22.3,41.8 23.8,46.3 1.6,4.5 3.6,17.9 -2.6,21.9 -6.2,4 -6.2,4 -6.2,4 l -13.8,-8.1 2.4,-4.4 1.6,-2 c 0,0 -7.2,-15.9 -15,-30.3 -7.8,-14.5 -7.8,-33.4 -7.8,-33.4 z"
       fill="#cfd9e8"
       id="path640" />
    <path
       d="m 1323.7,367.6 3.9,7.4 12,-8.8 -2.4,-4.2 z"
       fill="#aebddc"
       id="path642" />
    <path
       d="m 1317.3,362.2 5.4,5.4 -5.3,6.3 -2.9,-8.1 z"
       fill="#aebddc"
       id="path644" />
    <path
       d="m 1354.2,666.8 c 0.5,0.7 0.1,2.6 0.1,2.6 0,0 -9.3,1.2 -12.3,0.4 -0.8,-0.2 -2.1,-0.9 -3.3,-1.7 -0.2,-0.1 -0.6,-0.9 -0.8,-1.1 -0.4,-0.2 -0.6,0.2 -0.9,-0.1 -0.8,-0.6 -1.4,-1 -1.4,-1.1 -0.8,-4.8 0.3,-6.7 0.3,-6.7 0,0 7.9,-3 9.4,-0.9 3.5,4.9 7.8,7 8.9,8.6 z"
       fill="#161711"
       id="path646" />
    <path
       d="m 1287.9,656.3 -1.4,7.8 h -7.5 c 0,0 -0.4,-1.1 -1.1,-1.1 -0.5,0 -1.2,1.1 -2,1.1 -1.6,0 -3.4,0 -4.1,0 -1.4,0 -15.1,0 -15.1,0 0,0 -0.3,-1.6 0.1,-2.2 0.2,-0.3 1.5,-0.8 2.3,-1 3.9,-1.2 15.1,-4.8 17,-8.7 2.4,-4.8 11.8,4.1 11.8,4.1 z"
       fill="#161711"
       id="path648" />
    <path
       d="m 1333.5,547.4 c 0,0 -2.5,11.7 -2.2,33.8 0.2,14 1.5,51 3.9,78.6 0.1,1.7 13.1,0.4 13.1,0.4 0,0 7.9,-89.5 8.6,-106.9 0.3,-5.2 -13,-18.3 -23.4,-5.9 z"
       fill="#194866"
       id="path650" />
    <path
       d="m 1288.7,551.7 c 0,0 4.1,-1.6 15.2,1.6 7.2,2.1 -14.9,104.2 -14.9,104.2 l -16.4,-6 11.3,-100.9 z"
       fill="#194866"
       id="path652" />
    <path
       d="m 1326.2,318.5 v -5.4 h -2.2 -5.8 -3.5 c -3.9,0 -7.1,3.2 -7.1,7.1 v 5.4 h 2.2 5.8 3.5 c 3.9,-0.1 7.1,-3.2 7.1,-7.1 z"
       fill="#163f59"
       id="path654" />
    <path
       d="m 1337.3,351.1 c 0,3.5 -2.8,6.3 -6.3,6.3 h -14.2 c -3.5,0 -6.3,-2.8 -6.3,-6.3 v -28.5 c 0,-3.5 2.8,-6.3 6.3,-6.3 h 14.2 c 3.5,0 6.3,2.8 6.3,6.3 z"
       fill="#ffc4ad"
       id="path656" />
    <path
       d="m 1326.6,313.1 c 2.5,0 4.6,1.3 5.9,3.2 h 2.4 c 3,0 5.5,2.4 5.5,5.5 v 13.5 h -3.8 v -5.5 c 0,-2.1 -1.7,-3.8 -3.8,-3.8 h -2.2 -5.8 -3.5 c -3.9,0 -7.1,-3.2 -7.1,-7.1 v -5.8 z"
       fill="#163f59"
       id="path658" />
    <path
       d="m 1335.3,338.8 c 0,-1.8 1.5,-3.3 3.4,-3.3 h 0.3 c 1.9,0 3.4,1.5 3.4,3.3 v 4.1 c 0,1.8 -1.5,3.3 -3.4,3.3 h -0.3 c -1.4,0 -2.5,-0.8 -3.1,-2"
       fill="#ffc4ad"
       id="path660" />
    <path
       d="m 1262,373.7 2.9,-8.2 11.2,286.3 h -3.3 z"
       fill="#2c7eea"
       id="path662" />
    <path
       d="m 1274.2,651.8 h -1.4 l -10.8,-278.1 1.2,-3.3 z"
       fill="#2c7eea"
       id="path664" />
    <path
       d="m 1227.3,519.1 h 48.7 l -6.9,-176.8 h -48.7 z"
       fill="#2c7eea"
       id="path666" />
    <path
       d="m 1150.7,489.1 -4.3,-5.1 -16.5,176.8 h 4.9 z"
       fill="#cfd9e8"
       id="path668" />
    <path
       d="m 1132.8,660.8 h 2 l 15.9,-171.7 -1.7,-2.1 z"
       fill="#aebddc"
       id="path670" />
    <path
       d="m 1247.5,489.1 -4.3,-5.1 -16.5,176.8 h 4.9 z"
       fill="#cfd9e8"
       id="path672" />
    <path
       d="m 1229.6,660.8 h 2 l 15.9,-171.7 -1.7,-2.1 z"
       fill="#aebddc"
       id="path674" />
    <path
       d="M 1252.1,519.1 H 1136 l 16.5,-176.8 h 116.1 z"
       fill="#f3f3f3"
       id="path676" />
    <path
       d="m 1262,341.9 c -1.1,1.7 -1,1.6 -1,1.6 0,0 -2.5,-0.9 -4.7,0 -1.1,0.4 -4.5,2.3 -4.5,2.3 l -5.1,2.8 -2.2,1.5 c 0,0 -1.2,0.9 -1.7,0.9 -1.4,-0.1 -0.8,-1.1 -0.8,-1.1 l 8.2,-6.5 -9.2,3.9 c 0,0 -1.3,0.3 -1.7,-0.3 -0.4,-0.5 0,-0.7 0,-0.7 l 9.4,-6.8 -5,1.5 c 0,0 -1.2,0.3 -1.7,-0.3 -0.4,-0.6 -0.6,-0.7 -0.6,-0.7 l 9.7,-4.4 c 0,0.1 12.1,4.6 10.9,6.3 z"
       fill="#ffc4ad"
       id="path678" />
    <path
       d="m 1248.9,342.1 -6.7,2.4 c 0,0 -1.4,0.7 -2.3,0.6 -1,-0.1 -0.9,-1 -0.9,-1 l 9.7,-4.6 z"
       fill="#ffc4ad"
       id="path680" />
    <path
       d="m 1156.9,452.3 h -3.7 l -3.7,35.7 h 3.6 z"
       fill="#e4eef3"
       id="path682" />
    <path
       d="m 1162.2,452.3 h -3.7 l -3.7,35.7 h 3.6 z"
       fill="#e4eef3"
       id="path684" />
    <path
       d="m 1167.5,452.3 h -3.6 l -3.8,35.7 h 3.7 z"
       fill="#e4eef3"
       id="path686" />
    <path
       d="m 1172.8,452.3 h -3.6 l -3.8,35.7 h 3.7 z"
       fill="#e4eef3"
       id="path688" />
    <path
       d="m 1178.1,452.3 h -3.6 l -3.7,35.7 h 3.6 z"
       fill="#e4eef3"
       id="path690" />
    <path
       d="m 1183.5,452.3 h -3.7 l -3.7,35.7 h 3.6 z"
       fill="#e4eef3"
       id="path692" />
    <path
       d="m 1188.8,452.3 h -3.6 l -3.8,35.7 h 3.6 z"
       fill="#e4eef3"
       id="path694" />
    <path
       d="m 1194.1,452.3 h -3.6 l -3.8,35.7 h 3.7 z"
       fill="#e4eef3"
       id="path696" />
    <path
       d="m 1199.4,452.3 h -3.6 l -3.7,35.7 h 3.6 z"
       fill="#e4eef3"
       id="path698" />
    <path
       d="m 1204.8,452.3 h -3.7 l -3.7,35.7 h 3.6 z"
       fill="#e4eef3"
       id="path700" />
    <path
       d="m 1210.1,452.3 h -3.6 l -3.8,35.7 h 3.6 z"
       fill="#e4eef3"
       id="path702" />
    <path
       d="m 1215.4,452.3 h -3.6 L 1208,488 h 3.7 z"
       fill="#e4eef3"
       id="path704" />
    <path
       d="m 1220.7,452.3 h -3.6 l -3.7,35.7 h 3.6 z"
       fill="#e4eef3"
       id="path706" />
    <path
       d="m 1226.1,452.3 h -3.7 l -3.7,35.7 h 3.6 z"
       fill="#e4eef3"
       id="path708" />
    <path
       d="m 1231.4,452.3 h -3.7 L 1224,488 h 3.6 z"
       fill="#e4eef3"
       id="path710" />
    <path
       d="m 1236.7,452.3 h -3.6 l -3.8,35.7 h 3.7 z"
       fill="#e4eef3"
       id="path712" />
    <path
       d="m 1242,452.3 h -3.6 l -3.8,35.7 h 3.7 z"
       fill="#e4eef3"
       id="path714" />
    <path
       d="m 1247.3,452.3 h -3.6 L 1240,488 h 3.6 z"
       fill="#e4eef3"
       id="path716" />
    <path
       d="m 1156.2,458.8 h -3.7 l -3,29.2 h 3.6 z"
       fill="#8dcfff"
       id="path718" />
    <path
       d="m 1161,463.1 h -3.6 l -2.6,24.9 h 3.6 z"
       fill="#a3cf6f"
       id="path720" />
    <path
       d="m 1165.2,474 h -3.6 l -1.5,14 h 3.7 z"
       fill="#b6c2c9"
       id="path722" />
    <path
       d="m 1171.2,468.1 h -3.7 l -2.1,19.9 h 3.7 z"
       fill="#3dc7c9"
       id="path724" />
    <path
       d="m 1175,482.4 h -3.6 l -0.6,5.6 h 3.6 z"
       fill="#8dcfff"
       id="path726" />
    <path
       d="m 1181.2,474 h -3.6 l -1.5,14 h 3.6 z"
       fill="#a3cf6f"
       id="path728" />
    <path
       d="m 1187,469 h -3.6 l -2,19 h 3.6 z"
       fill="#b6c2c9"
       id="path730" />
    <path
       d="m 1191.9,473.4 h -3.6 l -1.6,14.6 h 3.7 z"
       fill="#3dc7c9"
       id="path732" />
    <path
       d="m 1198.8,458.8 h -3.7 l -3,29.2 h 3.6 z"
       fill="#8dcfff"
       id="path734" />
    <path
       d="m 1203.7,462.5 h -3.6 l -2.7,25.5 h 3.6 z"
       fill="#a3cf6f"
       id="path736" />
    <path
       d="m 1209.8,455.4 h -3.7 l -3.4,32.6 h 3.6 z"
       fill="#b6c2c9"
       id="path738" />
    <path
       d="m 1213.8,467.2 h -3.6 L 1208,488 h 3.7 z"
       fill="#3dc7c9"
       id="path740" />
    <path
       d="m 1220,459.4 h -3.6 l -3,28.6 h 3.6 z"
       fill="#8dcfff"
       id="path742" />
    <path
       d="m 1224.8,464.7 h -3.7 l -2.4,23.3 h 3.6 z"
       fill="#a3cf6f"
       id="path744" />
    <path
       d="m 1229.1,473.7 h -3.6 L 1224,488 h 3.6 z"
       fill="#b6c2c9"
       id="path746" />
    <path
       d="m 1233.2,485.8 h -3.7 l -0.2,2.2 h 3.7 z"
       fill="#3dc7c9"
       id="path748" />
    <path
       d="m 1240.9,463.2 h -3.6 l -2.7,24.8 h 3.7 z"
       fill="#8dcfff"
       id="path750" />
    <path
       d="m 1246.7,458.2 h -3.6 L 1240,488 h 3.6 z"
       fill="#a3cf6f"
       id="path752" />
    <path
       d="m 1254.4,366.6 h -94.2 l 0.2,-1.5 h 94.2 z"
       fill="#b7bec0"
       id="path754" />
    <path
       d="m 1233.5,369.4 h -73.6 l 0.1,-1.5 h 73.7 z"
       fill="#b7bec0"
       id="path756" />
    <path
       d="m 1180.5,406.4 h -19.3 l 0.2,-1.5 h 19.3 z"
       fill="#969c9e"
       id="path758" />
    <path
       d="m 1174.2,409.2 h -7.3 l 0.2,-1.5 h 7.3 z"
       fill="#b7bec0"
       id="path760" />
    <path
       d="m 1205.5,363 h -45 l 0.3,-2.4 h 45 z"
       fill="#a0e06e"
       id="path762" />
    <path
       d="M 1217.3,430.4 H 1153 l 0.1,-1.5 h 64.3 z"
       fill="#b7bec0"
       id="path764" />
    <path
       d="m 1203,433.1 h -50.2 l 0.1,-1.5 h 50.3 z"
       fill="#b7bec0"
       id="path766" />
    <path
       d="m 1198.4,426.7 h -45 l 0.3,-2.4 h 45 z"
       fill="#a0e06e"
       id="path768" />
    <path
       d="m 1166.8,377.6 -0.8,-2.3 h -3.6 v -0.2 h 3.8 v 0.1 l 0.8,2.4 z"
       fill="#b7bec0"
       id="path770" />
    <path
       d="m 1166.7,374.2 h -4.2 l 0.1,-0.9 h 4.2 z"
       fill="#b7bec0"
       id="path772" />
    <path
       d="m 1174.2,386.2 1.4,-2.3 h 3.6 l 0.1,-0.3 h -3.8 v 0.1 l -1.5,2.4 z"
       fill="#b7bec0"
       id="path774" />
    <path
       d="m 1175.2,382.7 h 4.2 l 0.1,-0.9 h -4.2 z"
       fill="#b7bec0"
       id="path776" />
    <path
       d="m 1182.6,382.3 1.4,-2.3 h 3.6 v -0.2 h -3.7 -0.1 l -1.4,2.4 z"
       fill="#b7bec0"
       id="path778" />
    <path
       d="m 1183.6,378.8 h 4.2 l 0.1,-0.9 h -4.2 z"
       fill="#b7bec0"
       id="path780" />
    <path
       d="m 1167.5,377.7 2.6,12.2 2.7,12.2 h -8.3 -8.2 l 5.6,-12.2 z"
       fill="#7ec8ef"
       id="path782" />
    <path
       d="m 1174,387 1.6,7.5 1.6,7.6 h -5.1 -5.1 l 3.5,-7.6 z"
       fill="#63e4e6"
       id="path784" />
    <path
       d="m 1182.4,383 2,9.5 2.1,9.6 h -6.5 -6.4 l 4.4,-9.6 z"
       fill="#a0e06e"
       id="path786" />
    <path
       d="m 1214.6,406.4 h -19.3 l 0.2,-1.5 h 19.3 z"
       fill="#969c9e"
       id="path788" />
    <path
       d="m 1208.3,409.2 h -7.3 l 0.2,-1.5 h 7.3 z"
       fill="#b7bec0"
       id="path790" />
    <path
       d="m 1208.1,378.8 -0.8,-2.3 h -3.7 l 0.1,-0.2 h 3.7 v 0.1 l 0.9,2.3 z"
       fill="#b7bec0"
       id="path792" />
    <path
       d="m 1207.9,375.4 h -4.1 l 0.1,-0.9 h 4.2 z"
       fill="#b7bec0"
       id="path794" />
    <path
       d="m 1200.9,385.9 -0.8,-2.3 h -3.6 v -0.3 h 3.8 v 0.1 l 0.8,2.4 z"
       fill="#b7bec0"
       id="path796" />
    <path
       d="m 1200.8,382.4 h -4.1 l 0.1,-0.9 h 4.1 z"
       fill="#b7bec0"
       id="path798" />
    <path
       d="m 1215.8,382.1 1.4,-2.3 h 3.6 l 0.1,-0.2 h -3.8 v 0.1 l -1.4,2.3 z"
       fill="#b7bec0"
       id="path800" />
    <path
       d="m 1216.8,378.7 h 4.2 l 0.1,-0.9 h -4.2 z"
       fill="#b7bec0"
       id="path802" />
    <path
       d="m 1201.5,387 1.6,7.5 1.7,7.6 h -5.2 -5.1 l 3.5,-7.6 z"
       fill="#7ec8ef"
       id="path804" />
    <path
       d="m 1208.4,379.4 2.4,11.3 2.5,11.4 h -7.7 -7.7 l 5.2,-11.4 z"
       fill="#63e4e6"
       id="path806" />
    <path
       d="m 1215.3,383 2,9.5 2.1,9.6 h -6.5 -6.4 l 4.4,-9.6 z"
       fill="#a0e06e"
       id="path808" />
    <path
       d="m 1247.8,406.4 h -19.3 l 0.2,-1.5 h 19.3 z"
       fill="#969c9e"
       id="path810" />
    <path
       d="m 1241.5,409.2 h -7.3 l 0.2,-1.5 h 7.3 z"
       fill="#b7bec0"
       id="path812" />
    <path
       d="m 1232.3,394.5 -0.8,-2.3 h -3.7 l 0.1,-0.2 h 3.7 v 0.1 l 0.9,2.3 z"
       fill="#b7bec0"
       id="path814" />
    <path
       d="m 1232.1,391.1 h -4.1 l 0.1,-0.9 h 4.1 z"
       fill="#b7bec0"
       id="path816" />
    <path
       d="m 1246.5,386.2 1.4,-2.3 h 3.6 l 0.1,-0.3 h -3.8 v 0.1 l -1.5,2.4 z"
       fill="#b7bec0"
       id="path818" />
    <path
       d="m 1247.5,382.7 h 4.2 l 0.1,-0.9 h -4.2 z"
       fill="#b7bec0"
       id="path820" />
    <path
       d="m 1242.2,379.9 1.4,-2.3 h 3.6 v -0.2 h -3.7 l -1.5,2.4 z"
       fill="#b7bec0"
       id="path822" />
    <path
       d="m 1243.2,376.4 h 4.2 l 0.1,-0.9 h -4.2 z"
       fill="#b7bec0"
       id="path824" />
    <path
       d="m 1232.6,395.2 0.7,3.4 0.8,3.5 h -2.3 -2.3 l 1.5,-3.5 z"
       fill="#7ec8ef"
       id="path826" />
    <path
       d="m 1241.8,380.7 2.3,10.7 2.3,10.7 h -7.2 -7.3 l 5,-10.7 z"
       fill="#63e4e6"
       id="path828" />
    <path
       d="m 1246.3,387 1.7,7.5 1.6,7.6 h -5.1 -5.1 l 3.5,-7.6 z"
       fill="#a0e06e"
       id="path830" />
    <path
       d="m 980.7,596 4.6,7.1 -38.9,12.5 c 0,0 -2.6,-2.5 6.9,-7.5 11.1,-5.9 27.4,-12.1 27.4,-12.1 z"
       fill="#88bdda"
       id="path832" />
    <path
       d="m 987.6,596 -4.6,7.1 38.9,12.5 c 0,0 2.6,-2.5 -6.9,-7.5 -11.2,-5.9 -27.4,-12.1 -27.4,-12.1 z"
       fill="#88bdda"
       id="path834" />
    <rect
       x="980"
       y="575"
       width="8.1000004"
       height="28.9"
       fill="#88bdda"
       id="rect836" />
    <path
       d="m 980.1,597.5 4,6.7 -33.3,11.9 c 0,0 -2.2,-2.4 5.9,-7.1 9.6,-5.6 23.4,-11.5 23.4,-11.5 z"
       fill="#91e2f6"
       id="path838" />
    <path
       d="m 988.1,597.5 -4,6.7 33.3,11.9 c 0,0 2.2,-2.4 -5.9,-7.1 -9.6,-5.6 -23.4,-11.5 -23.4,-11.5 z"
       fill="#91e2f6"
       id="path840" />
    <path
       d="m 954.6,618.8 c 0,1.6 -1.3,2.8 -2.8,2.8 -1.6,0 -2.8,-1.3 -2.8,-2.8 0,-1.6 1.3,-2.8 2.8,-2.8 1.5,0 2.8,1.2 2.8,2.8 z"
       fill="#001f46"
       id="path842" />
    <path
       d="m 1019.1,618.8 c 0,1.6 -1.3,2.8 -2.8,2.8 -1.6,0 -2.8,-1.3 -2.8,-2.8 0,-1.6 1.3,-2.8 2.8,-2.8 1.5,0 2.8,1.2 2.8,2.8 z"
       fill="#001f46"
       id="path844" />
    <path
       d="m 947.7,618.8 c 0,1.6 -1.3,2.8 -2.8,2.8 -1.6,0 -2.8,-1.3 -2.8,-2.8 0,-1.6 1.3,-2.8 2.8,-2.8 1.6,0 2.8,1.2 2.8,2.8 z"
       fill="#367082"
       id="path846" />
    <path
       d="m 1025.9,618.8 c 0,1.6 -1.3,2.8 -2.8,2.8 -1.6,0 -2.8,-1.3 -2.8,-2.8 0,-1.6 1.3,-2.8 2.8,-2.8 1.5,0 2.8,1.2 2.8,2.8 z"
       fill="#367082"
       id="path848" />
    <rect
       x="981"
       y="564.40002"
       width="5.9000001"
       height="10.4"
       fill="#367082"
       id="rect850" />
    <path
       d="m 991.4,558.9 c 0,3.2 -2.6,5.8 -5.8,5.8 h -3.3 c -3.2,0 -5.8,-2.6 -5.8,-5.8 0,-3.2 2.6,-5.8 5.8,-5.8 h 3.3 c 3.2,0 5.8,2.6 5.8,5.8 z"
       fill="#367082"
       id="path852" />
    <path
       d="m 1028.2,553.6 c 0.1,-0.7 0.2,-5 0.2,-5.7 0,-4.7 -3,-8.5 -6.8,-8.5 h -75.3 c -3.7,0 -6.8,3.8 -6.8,8.5 0,0.7 0.1,5 0.2,5.7 z"
       fill="#3dc7c9"
       id="path854" />
    <path
       d="m 938.9,555.9 c 0,1.4 0.8,2.6 1.9,2.6 h 86.4 c 1,0 1.9,-1.2 1.9,-2.6 0,-1.4 -0.8,-2.6 -1.9,-2.6 h -86.4 c -1.1,0 -1.9,1.2 -1.9,2.6 z"
       fill="#367082"
       id="path856" />
    <path
       d="m 998.5,539.2 c 0,0 -48.4,0.1 -67.1,0.4 -12.9,0.2 -14.1,-18.2 -9,-21 15.5,-8.4 63.8,-12.8 63.8,-12.8 l 32.9,30.2 c 0,0 -1.9,-0.1 -20.6,3.2 z"
       fill="#3d7aa8"
       id="path858" />
    <path
       d="m 952.9,440.4 c 0,0 -12.4,-3.5 -17.9,12.8 -8.3,24.9 -7.6,47.8 -6.4,52.7 0.5,2.2 2.1,10 16,10.3 5.6,0.1 3.4,-12 3.4,-12 0,0 3.6,-10.3 7.5,-27.6 3.8,-17.4 -2.6,-36.2 -2.6,-36.2 z"
       fill="#74b2e8"
       id="path860" />
    <path
       d="m 943,441.8 31.9,-10.3 24.2,-1.6 26.5,8 c 0,0 8.7,6 0.6,25.2 -8,19.2 -5,49.3 -5,49.3 l -68.3,2.2 c 0,0 -1.3,-27.8 -5.8,-55.6 -1,-6.3 -1.1,-13.6 -4.1,-17.2 z"
       fill="#86c0f0"
       id="path862" />
    <path
       d="m 989.9,513.1 h -3.5 c -3.6,-26.8 -3.5,-54.5 0.5,-81.3 1,0.6 2.1,1.2 3.1,1.9 -0.8,27.4 0.7,54.7 -0.1,79.4 z"
       fill="#74b2e8"
       id="path864" />
    <path
       d="m 976.3,439 c 0.5,3.7 3.5,6.9 6.7,7 3,0 6,0 9,0 3.2,-0.1 6.2,-3.3 6.7,-7 0.7,-6.1 1.5,-12.2 2.2,-18.3 0.5,-3.6 -1.7,-11 -6.5,-13.1 -4.4,-1.9 -9.4,-1.9 -13.8,0 -4.8,2.2 -7,9.5 -6.5,13.1 0.7,6.1 1.5,12.2 2.2,18.3 z"
       fill="#e6b09c"
       id="path866" />
    <path
       d="m 987.8,446.5 5.8,9.4 10.5,-13.1 -1.7,-6.9 -3.4,-2.8 v 5.2 z"
       fill="#74b2e8"
       id="path868" />
    <path
       d="m 987.1,446.5 -5.7,9.4 -9.8,-12.2 1.6,-7.5 2.5,-3.2 1,6.1 z"
       fill="#74b2e8"
       id="path870" />
    <path
       d="m 988.8,396 c 2.5,0 4.7,1.3 6,3.3 h 2.5 c 3.1,0 5.6,2.5 5.6,5.6 v 13.8 H 999 v -5.6 c 0,-2.2 -1.8,-3.9 -3.9,-3.9 h -2.3 3.6 -2.4 c -4,0 -7.2,-3.2 -7.2,-7.2 v -6 z"
       fill="#163f59"
       id="path872" />
    <path
       d="m 995.8,423.8 c 0,1.9 1.5,3.4 3.4,3.4 h 0.3 c 1.9,0 3.4,-1.5 3.4,-3.4 v -4.2 c 0,-1.9 -1.5,-3.4 -3.4,-3.4 h -0.3 c -1.4,0 -2.6,0.8 -3.1,2"
       fill="#e6b09c"
       id="path874" />
    <path
       d="M 991.9,401.5 V 396 h -2.3 -6 -3.6 c -4,0 -7.2,3.2 -7.2,7.2 v 5.5 h 2.3 6 3.6 c 4,0 7.2,-3.2 7.2,-7.2 z"
       fill="#163f59"
       id="path876" />
    <path
       d="m 973.8,429.1 c 0,2.9 2.2,7.7 5.8,9.3 4.9,2 10.8,2 15.7,0 3.6,-1.5 5.8,-6.4 5.8,-9.3 0,-8.1 0,-16.3 0,-24.4 0,-2.9 -2.9,-5.3 -6.4,-5.4 -4.9,0 -9.7,0 -14.6,0 -3.6,0.1 -6.4,2.5 -6.4,5.4 0.1,8.1 0.1,16.2 0.1,24.4 z"
       fill="#ffc4ad"
       id="path878" />
    <path
       d="m 984.7,396 c -2.5,0 -4.7,1.3 -6,3.3 h -2.5 c -3.1,0 -5.6,2.5 -5.6,5.6 v 13.8 h 3.9 v -5.6 c 0,-2.2 1.8,-3.9 3.9,-3.9 h -1.4 6.4 c 4,0 7.2,-3.2 7.2,-7.2 v -6 z"
       fill="#163f59"
       id="path880" />
    <path
       d="m 977.7,419.7 c 0,-1.9 -1.5,-3.4 -3.4,-3.4 H 974 c -1.9,0 -3.4,1.5 -3.4,3.4 v 4.2 c 0,1.9 1.5,3.4 3.4,3.4 h 0.3 c 1.4,0 2.6,-0.8 3.1,-2"
       fill="#ffc4ad"
       id="path882" />
    <path
       d="m 990.8,402.9 c -0.1,-0.5 -0.1,-0.9 -0.1,-1.4 V 396 h 2.3 2.8 c 4,0 7.2,3.2 7.2,7.2 v 5.5 h -1.5 -0.8 -2.8 c -0.5,0 -1,-0.1 -1.5,-0.2 -0.6,-2.8 -2.8,-5 -5.6,-5.6 z"
       fill="#163f59"
       id="path884" />
    <path
       d="m 1054.1,631.8 c 0.7,0.9 0.2,3.3 0.2,3.3 0,0 -13,1.5 -17.2,0.5 -1.1,-0.3 -2.9,-1.2 -4.7,-2.2 -0.3,-0.2 -0.8,-1.2 -1.1,-1.3 -0.5,-0.3 -0.8,0.2 -1.2,-0.1 -1.2,-0.7 -2,-1.3 -2,-1.4 -1.1,-6 0.4,-8.4 0.4,-8.4 0,0 11.1,-3.7 13.2,-1.1 4.9,6 10.8,8.7 12.4,10.7 z"
       fill="#161711"
       id="path886" />
    <path
       d="m 932.3,625.3 -0.9,9.8 -9.9,1 c 0,0 -0.7,-1.3 -1.5,-1.2 -0.7,0.1 -1.5,1.5 -2.4,1.6 -2.1,0.2 -4.4,0.4 -5.3,0.5 -1.8,0.2 -19.8,1.9 -19.8,1.9 0,0 -0.6,-2 -0.2,-2.7 0.2,-0.4 1.8,-1.2 2.9,-1.6 5,-1.9 19.1,-7.8 21.1,-12.9 2.6,-6.3 16,3.6 16,3.6 z"
       fill="#161711"
       id="path888" />
    <path
       d="m 947.2,500.6 33.3,13.6 c 0,0 -23.6,3.4 -38.4,0.4 -9.9,-2 4.7,-14.4 5.1,-14 z"
       fill="#ffc4ad"
       id="path890" />
    <path
       d="m 1022.9,521.4 c 0,0 3.2,30.4 2.7,46.5 -0.3,12.1 -0.4,35.4 2.5,55.2 0.2,1.2 15.7,0.3 15.7,0.3 0,0 5.6,-75.4 7.2,-87.9 1.7,-12.4 -3.1,-21.4 -28.1,-14.1 z"
       fill="#3d7aa8"
       id="path892" />
    <path
       d="m 925.4,528.7 c 0,0 5,7.9 18.7,9.8 5,0.7 -8,88.3 -8,88.3 l -20.2,-6.5 3.9,-96.9 z"
       fill="#316091"
       id="path894" />
    <path
       d="m 981.2,538.5 c 0,0 26.5,3.8 44.1,5.6 6.5,0.7 12.1,-17.5 12.8,-18.2 4.7,-5 9.4,-4.3 9.2,-4.5 -3.8,-4.1 -23.6,-8 -44.4,-12.8 -20.7,-4.9 -23.9,-1.8 -23.9,-1.8 z"
       fill="#316091"
       id="path896" />
    <path
       d="m 1003.1,508.5 c 20.7,4.9 40.5,8.7 44.4,12.8 0.2,0.2 -4.5,-0.4 -9.2,4.5 -0.2,0.2 -1.4,6 -2.3,8.1 3.4,-6.1 -45.3,-23.2 -55.8,-27.7 1.9,-0.6 7.6,-1.3 22.9,2.3 z"
       fill="#3d7aa8"
       id="path898" />
    <path
       d="m 1025.8,538.2 2,59.2 2.1,13.8 0.2,-13.8 -0.5,-8.5 4.8,-13.3 2.5,-30.8 -3.7,1.3 0.5,-13.5 z"
       fill="#316091"
       id="path900" />
    <path
       d="m 926.1,521.3 -5,1.4 -1.8,71.2 10.4,25.4 -5,-17.3 2,-35.8 c 0,0 7.2,17.3 7.2,16.4 0,-0.9 -6.1,-37.6 -6.1,-37.6 0,0 6.8,5.6 6.1,5.4 -0.6,-0.2 -4,-25.7 -7.8,-29.1 z"
       fill="#3d7aa8"
       id="path902" />
    <path
       d="m 1010.9,438.2 c 0,0 10.6,-8.3 21,7.1 15.3,22.7 21.9,46.8 24.3,53.8 1.9,5.4 0.8,20.5 -5.4,26.7 -1.5,1.5 -10.5,0.3 -10.5,0.3 l -5.9,-4.1 2.5,-4.8 0.1,-3.8 c 0,0 -7.6,-18.2 -16.8,-35.5 -9.3,-17.1 -9.3,-39.7 -9.3,-39.7 z"
       fill="#86c0f0"
       id="path904" />
    <path
       d="m 1037,507.5 -34.5,1.8 c 0,0 33.3,15.3 34.4,12.6 6.1,-14.9 0.1,-14.4 0.1,-14.4 z"
       fill="#ffc4ad"
       id="path906" />
    <path
       d="m 1017.9,506.4 c -2,-1 -1.8,-1 -1.8,-1 0,0 -1.8,2.2 -4.5,2.6 -1.3,0.2 -5.6,0.3 -5.6,0.3 l -6.4,0.2 -3,-0.2 c 0,0 -1.7,-0.2 -2.1,0.1 -1.3,0.8 -0.2,1.5 -0.2,1.5 l 11.4,1.6 -11,1.4 c 0,0 -1.4,0.4 -1.4,1.2 -0.1,0.7 0.4,0.7 0.4,0.7 l 12.7,1.4 -5.6,1.3 c 0,0 -1.3,0.4 -1.4,1.2 -0.1,0.8 -0.2,1 -0.2,1 l 11.7,-1.1 c 0.1,-0.3 9.1,-11.2 7,-12.2 z"
       fill="#ffc4ad"
       id="path908" />
    <path
       d="m 1005.3,513.5 -7.7,1.4 c 0,0 -1.7,0.1 -2.5,0.7 -0.9,0.6 -0.4,1.4 -0.4,1.4 l 11.7,-1 z"
       fill="#ffc4ad"
       id="path910" />
    <path
       d="m 957.3,519.5 c 0,0 0,-0.1 0,0 v -2.2 h 68 v 2.2 c 0,0 0,0 0,0.1 l -0.2,0.4 c -1.2,1.9 -3.2,2.2 -5.6,2.2 h -56.3 c -2.4,0 -4.5,-0.3 -5.6,-2.2 z"
       fill="#b6c2c9"
       id="path912" />
    <rect
       x="968.79999"
       y="517.70001"
       width="45.099998"
       height="1.5"
       fill="#879ba6"
       id="rect914" />
    <path
       d="m 957.3,517.5 -0.2,-44.6 c 0,-1.2 0.9,-2.1 2.1,-2.1 h 63.8 c 1.2,0 2.1,0.9 2.1,2.1 l 0.2,44.6 z"
       fill="#e4eef3"
       id="path916" />
    <path
       d="m 987.1,494.1 c 0,2.3 1.9,4.1 4.1,4.1 2.3,0 4.1,-1.8 4.1,-4.1 0,-2.3 -1.9,-4.1 -4.1,-4.1 -2.3,0 -4.1,1.8 -4.1,4.1 z"
       fill="#b6c2c9"
       id="path918" />
    <path
       d="m 1041.4,524.7 2.4,-15.1 -3.9,-4.1 -8.8,1.4 1.8,16.8 z"
       fill="#74b2e8"
       id="path920" />
    <path
       d="m 935.5,513.9 -0.9,-5.6 11.1,-9.9 5.9,2.7 -7.8,14.9 z"
       fill="#86c0f0"
       id="path922" />
    <path
       d="m 741.7,595 c -2.1,0 -5.4,-0.5 -8.2,-3 -4.1,-3.6 -5.9,-10 -5.3,-19 0.4,-6.1 2.8,-12.2 5.3,-18.8 4.3,-11 9.1,-23.4 6.6,-39.9 l 4.7,-0.7 c 2.7,17.7 -2.6,31.3 -6.8,42.3 -2.5,6.4 -4.7,12 -5,17.4 -0.5,7.3 0.8,12.5 3.7,15.1 2.7,2.4 6.1,1.8 6.3,1.8 l 1,4.7 c -0.3,-0.1 -1.1,0.1 -2.3,0.1 z"
       fill="#367082"
       id="path924" />
    <path
       d="m 778.2,632.7 4.6,7.1 -38.9,12.5 c 0,0 -2.6,-2.5 6.9,-7.5 11.2,-5.9 27.4,-12.1 27.4,-12.1 z"
       fill="#88bdda"
       id="path926" />
    <path
       d="m 785.1,632.7 -4.6,7.1 38.9,12.5 c 0,0 2.6,-2.5 -6.9,-7.5 -11.2,-5.9 -27.4,-12.1 -27.4,-12.1 z"
       fill="#88bdda"
       id="path928" />
    <rect
       x="777.59998"
       y="611.70001"
       width="8.1000004"
       height="28.9"
       fill="#88bdda"
       id="rect930" />
    <path
       d="m 777.6,634.2 4,6.7 -33.3,11.9 c 0,0 -2.2,-2.4 5.9,-7.1 9.6,-5.6 23.4,-11.5 23.4,-11.5 z"
       fill="#91e2f6"
       id="path932" />
    <path
       d="m 785.6,634.2 -4,6.7 33.3,11.9 c 0,0 2.2,-2.4 -5.9,-7.1 -9.5,-5.6 -23.4,-11.5 -23.4,-11.5 z"
       fill="#91e2f6"
       id="path934" />
    <path
       d="m 752.1,655.5 c 0,1.6 -1.3,2.8 -2.8,2.8 -1.6,0 -2.8,-1.3 -2.8,-2.8 0,-1.6 1.3,-2.8 2.8,-2.8 1.5,0 2.8,1.2 2.8,2.8 z"
       fill="#001f46"
       id="path936" />
    <path
       d="m 816.6,655.5 c 0,1.6 -1.3,2.8 -2.8,2.8 -1.6,0 -2.8,-1.3 -2.8,-2.8 0,-1.6 1.3,-2.8 2.8,-2.8 1.5,0 2.8,1.2 2.8,2.8 z"
       fill="#001f46"
       id="path938" />
    <path
       d="m 745.3,655.5 c 0,1.6 -1.3,2.8 -2.8,2.8 -1.6,0 -2.8,-1.3 -2.8,-2.8 0,-1.6 1.3,-2.8 2.8,-2.8 1.5,0 2.8,1.2 2.8,2.8 z"
       fill="#367082"
       id="path940" />
    <path
       d="m 823.4,655.5 c 0,1.6 -1.3,2.8 -2.8,2.8 -1.6,0 -2.8,-1.3 -2.8,-2.8 0,-1.6 1.3,-2.8 2.8,-2.8 1.6,0 2.8,1.2 2.8,2.8 z"
       fill="#367082"
       id="path942" />
    <rect
       x="778.5"
       y="601.09998"
       width="5.9000001"
       height="10.4"
       fill="#367082"
       id="rect944" />
    <path
       d="m 788.9,595.6 c 0,3.2 -2.6,5.8 -5.8,5.8 h -3.3 c -3.2,0 -5.8,-2.6 -5.8,-5.8 0,-3.2 2.6,-5.8 5.8,-5.8 h 3.3 c 3.2,0 5.8,2.6 5.8,5.8 z"
       fill="#367082"
       id="path946" />
    <path
       d="m 825.7,590.3 c 0.1,-0.7 0.2,-5 0.2,-5.7 0,-4.7 -3,-8.5 -6.8,-8.5 h -75.3 c -3.7,0 -6.8,3.8 -6.8,8.5 0,0.7 0.1,5 0.2,5.7 z"
       fill="#3dc7c9"
       id="path948" />
    <path
       d="m 736.4,592.6 c 0,1.4 0.8,2.6 1.9,2.6 h 86.4 c 1,0 1.9,-1.2 1.9,-2.6 0,-1.4 -0.8,-2.6 -1.9,-2.6 h -86.4 c -1,0 -1.9,1.2 -1.9,2.6 z"
       fill="#367082"
       id="path950" />
    <path
       d="m 740.6,546.8 c 1.9,0.1 13.7,0.3 15.7,0.4 12.9,0.2 24,-2.3 24.7,-5.4 2.6,-13.2 2.7,-26.8 0.3,-40 -0.6,-3.2 -11.8,-5.6 -25,-5.4 -2.1,0 -14.1,0.2 -16,0.4 4,16.4 4.1,33.5 0.3,50 z"
       fill="#3dc7c9"
       id="path952" />
    <path
       d="m 738.9,496.7 c -1.4,0 -2.5,0.7 -2.3,1.5 3.6,15.5 3.7,31.6 0.4,47.1 -0.2,0.8 0.8,1.5 2.2,1.5 1.4,0 2.7,-0.6 2.9,-1.5 3.4,-15.5 3.3,-31.7 -0.3,-47.2 -0.2,-0.8 -1.5,-1.4 -2.9,-1.4 z"
       fill="#367082"
       id="path954" />
    <path
       d="m 738.3,546.8 c 0.4,0.1 2.9,0.2 3.4,0.2 2.8,0 5.7,-2.4 6.3,-5.6 2.3,-13 2.3,-26.4 -0.2,-39.4 -0.6,-3.1 -3.6,-5.6 -6.4,-5.6 -0.5,0 -3.1,0.1 -3.5,0.2 4,16.6 4.2,33.7 0.4,50.2 z"
       fill="#33a8b5"
       id="path956" />
    <path
       d="m 816.6,509.1 c 0,0 0.1,3.3 16,3.3 16,0 39.4,-3.9 39.4,-3.9 L 835.2,505 c 0,0.1 -14.1,-0.6 -18.6,4.1 z"
       fill="#e6b09c"
       id="path958" />
    <path
       d="m 859.5,509.7 c 7.6,0.2 10.7,4.1 13.7,5.4 3,1.3 5.9,3.2 5.9,3.1 -1.6,-3.3 -4,-3.5 -5.2,-4.6 -1.2,-1.1 -0.9,-0.6 1.8,-0.7 1.5,-0.1 4.2,2.7 6.1,4.3 1.6,1.3 2.7,1.5 2.7,1.5 0,0 -1.9,-2.8 -4.3,-5.1 -2.9,-2.8 -6.6,-5.1 -7.5,-5.5 -1.6,-0.7 -6.7,-1 -10.3,-0.7 -4.1,0.6 -8.4,2.1 -2.9,2.3 z"
       fill="#e6b09c"
       id="path960" />
    <path
       d="m 872.2,508.4 c 0,0 5.8,1.7 6.8,2.5 0.7,0.6 3.6,3.8 3.6,3.8 0,0 -2.2,-0.4 -3.4,-1.6 -1.2,-1.4 -7,-4.7 -7,-4.7 z"
       fill="#e6b09c"
       id="path962" />
    <path
       d="m 823.8,502.4 c 0,0 -14.7,0.4 -14,9.2 0.4,5 3.7,6.8 8.1,6.6 8.3,-0.4 17.6,-1.3 17.6,-1.3 l 4.6,-13.4 z"
       fill="#b0bfde"
       id="path964" />
    <path
       d="m 820.7,503.5 -12.8,-45.3 c 0,0 -1.9,-6.6 -5.4,-5.5 -5.1,1.6 -2.8,7.1 -2.5,10.3 0.7,6.5 0,9.3 4.1,25.1 2.5,9.8 4.6,21 6.9,27.4 1.6,4.4 4.7,-1.7 9.2,-3.3 8.4,-3 0.5,-8.7 0.5,-8.7 z"
       fill="#b0bfde"
       id="path966" />
    <path
       d="m 795.8,443.6 c -2.2,9.9 -12.2,16 -22.2,13.8 -10.1,-2.3 -16.5,-12.1 -14.2,-21.9 2.2,-9.9 12.2,-16 22.2,-13.8 10.1,2.2 16.4,12 14.2,21.9 z"
       fill="#282723"
       id="path968" />
    <path
       d="m 813,433.5 c -1.7,7.6 -9.2,12.3 -16.8,10.6 l -2,-7.3 c -7.6,-1.7 -12.3,-9.2 -10.6,-16.8 l 1.2,-5.1 c 1.7,-7.6 9.2,-12.3 16.8,-10.6 l 3.4,0.8 c 7.6,1.7 12.3,9.2 10.6,16.8 z"
       fill="#282723"
       id="path970" />
    <path
       d="m 812.1,412.1 c -0.3,1.3 -0.7,2.5 -1.2,3.8 -3.4,8.5 -10.2,14 -16.2,13.5 -1.1,3.9 -2.7,7.4 -4.3,10.2 -1.9,3.2 -6.8,6 -6.8,6 -2.4,5.9 21.4,25.8 22.4,25.3 2.2,-1.1 -1.7,-15.4 -5.6,-19.8 -1.8,-2.1 -3.7,-4.5 -3.7,-5.9 -0.1,-4.9 1.4,-5.9 3.8,-8.2 4.1,-3.1 8.9,-2 8.9,-2 0.5,0.1 0.9,0 1.3,-0.2 0.5,-0.8 0.9,-1.8 1.1,-2.8 l 2.5,-11.3 c 0.5,-3.2 -0.3,-6.3 -2.2,-8.6 z"
       fill="#ffc4ad"
       id="path972" />
    <path
       d="m 787.5,538.2 c 0,0 6.1,5.5 7.8,6 2.3,0.7 8.7,-2.1 8.7,-2.1 0,0 -1.8,-28.6 -1.1,-39.9 0.7,-11.3 3.3,-14.6 3,-18.1 -0.5,-5.6 4,-8.4 2.7,-12.7 -1.3,-4.3 -4.7,-19.6 -4.9,-17.4 -2,18.1 -8.9,4.1 -10.3,2 -0.9,-1.2 -5.9,82.2 -5.9,82.2 z"
       fill="#2c7eea"
       id="path974" />
    <path
       d="m 800.2,449.2 c 0,0 8,5.9 7.9,8.6 -0.1,2.7 4.2,10.8 2.4,22.9 -2,13.8 -2.7,23.1 -2.3,31.9 0.4,8.8 4.5,16.5 4.6,27.3 0.1,8.5 -1.8,9.3 -1.8,9.3 0,0 -3.8,1.4 -6.9,-1.5 -3.2,-2.9 -2.6,-32 -2.1,-39.3 0.5,-7.3 2.8,-24.6 3.3,-29.6 0.7,-6.3 -0.3,-12.4 -0.7,-14.2 -1.1,-6.2 -2.4,-10 -3.4,-12.3 -0.2,-0.4 -2.2,-2.1 -2.4,-2.4 -0.5,-1.3 0.7,-1.5 1.4,-0.7 z"
       fill="#d1dbea"
       id="path976" />
    <path
       d="m 798,446.2 c 0,0 -1.7,-0.3 -0.2,1.6 0.8,1 0.8,2 0.8,2 0,0 0.7,-0.8 1.8,0.3 1,1 2.6,2.2 2.6,2.2 0,0 -1,-2.8 -1.2,-3 -0.9,-0.8 -3.8,-3.1 -3.8,-3.1 z"
       fill="#b0bfde"
       id="path978" />
    <path
       d="m 790.5,468.5 c -2.3,10.3 -12.7,16.7 -23.2,14.4 -10.5,-2.4 -17.2,-12.6 -14.9,-22.9 2.3,-10.3 12.7,-16.7 23.2,-14.4 10.5,2.3 17.2,12.6 14.9,22.9 z"
       fill="#282723"
       id="path980" />
    <path
       d="m 830.7,635.9 -3.7,28 15.8,7.3 8.8,1.8 -15.6,-11.6 5.1,-25.3 z"
       fill="#ffc4ad"
       id="path982" />
    <path
       d="m 826,668.1 3.4,0.9 2.3,-2.1 12.6,6.1 11.2,2.6 c 0,0 0.1,-0.9 -0.2,-1.3 -1.4,-1.8 -9.2,-5.7 -9.2,-5.7 0,0 -0.1,2.6 -1.2,2.7 -1.1,0.1 -10.8,-4.8 -13,-6.2 -3.8,-2.4 -4.6,-3.8 -4.9,-3.6 -0.9,0.4 -1,6.6 -1,6.6 z"
       fill="#161711"
       id="path984" />
    <path
       d="m 868.8,597 12.5,23.8 17.3,-0.8 8.7,-2.4 -19.2,-3.1 -10.4,-20.4 z"
       fill="#ffc4ad"
       id="path986" />
    <path
       d="m 882.3,625.1 3.4,-0.8 1.1,-2.9 15.5,-0.2 9.3,-2.1 c 0,0 -1.1,-1.2 -1.8,-1.5 -2.1,-0.8 -9.4,-1.3 -9.4,-1.3 0,0 0.8,2 -0.2,2.6 -1,0.6 -11.6,0.9 -14.3,0.7 -4.5,-0.3 -5.8,-1.3 -6,-1 -0.3,0.9 2.4,6.5 2.4,6.5 z"
       fill="#161711"
       id="path988" />
    <path
       d="m 777.2,525.6 9.4,4.1 4.1,12.2 60.2,-9.9 c 0,0 6.1,-1.9 10,7.8 5.6,13.8 19.7,56.6 19.7,56.6 l -8.9,9.4 -28.1,-48.4 c 0,0 -57.5,27 -76.5,21.2 -7.3,-2.2 -12.8,-15.1 -11.8,-28.1 0.8,-10.2 2.8,-19.5 2.8,-19.5 z"
       fill="#194866"
       id="path990" />
    <path
       d="m 785.3,578.2 46,-3.3 -4,71 13.6,0.4 10,-83.2 c 0,0 -2.7,-12.4 -11.5,-10.5 -8.7,1.9 -30,18.2 -54.1,25.6 z"
       fill="#163f59"
       id="path992" />
    <path
       d="m 791.1,543.7 c 0,0 1.1,-28.9 2,-42.6 0.8,-13.7 0.7,-40.1 0.8,-43.4 0.2,-3.3 -0.7,-7.9 -0.7,-7.9 0,0 -4.2,-7.1 -8.8,-6.5 -4.1,0.5 -10.4,6.2 -14.3,8.9 -3.9,2.6 -3.4,50.9 -3.6,53.3 -0.7,8.8 -5.9,17.4 -9.9,25.9 -2.5,5.4 -3.1,13.9 -3.1,13.9 0,0 23.4,-4.6 37.6,-1.6 z"
       fill="#d1dbea"
       id="path994" />
    <path
       d="m 785.8,440.9 3.3,3.3 4.7,5 -2.4,5.6 -8.2,-11.5 z"
       fill="#b0bfde"
       id="path996" />
    <path
       d="m 779.5,516.4 c 0,0 0.5,3.5 19.4,1.4 18.9,-2.1 46.2,-9.4 46.2,-9.4 l -44.1,1.1 c 0.1,0.1 -16.7,1.2 -21.5,6.9 z"
       fill="#ffc4ad"
       id="path998" />
    <path
       d="m 830.4,511.4 c 9,-0.7 13.2,3 16.9,4 3.7,1 7.4,2.6 7.4,2.6 -2.3,-3.3 -5.2,-3.2 -6.7,-4.2 -1.5,-1 -1.1,-0.5 2.1,-1 1.8,-0.3 5.2,2.4 7.7,3.8 2.1,1.2 3.4,1.3 3.4,1.3 0,0 -2.6,-2.8 -5.7,-4.9 -3.8,-2.6 -8.4,-4.6 -9.5,-4.9 -2,-0.5 -8,-0.2 -12.3,0.7 -5,0.9 -9.8,3.1 -3.3,2.6 z"
       fill="#ffc4ad"
       id="path1000" />
    <path
       d="m 845.4,508.3 c 0,0 7,1 8.3,1.8 0.9,0.5 4.7,3.6 4.7,3.6 0,0 -2.6,-0.2 -4.2,-1.3 -1.7,-1.2 -8.8,-4.1 -8.8,-4.1 z"
       fill="#ffc4ad"
       id="path1002" />
    <path
       d="m 787.3,508.3 -2.1,-44.7 c 0,0 -2.4,-9.4 -5.9,-11.5 -4.2,-2.5 -9.9,2.2 -9.9,2.2 0,0 -2.9,7 -1,39.9 1.3,22 3.3,33.5 13.8,31.9 9.8,-1.5 20.8,-3.7 20.8,-3.7 l 3.9,-15 z"
       fill="#b0bfde"
       id="path1004" />
    <path
       d="m 824.9,519.4 c 0,0 0,-0.1 0,0 v -2.3 h 91.8 v 2.2 c 0,0 0,0 0,0.1 l -0.2,0.4 c -1.2,1.9 -3.3,2.3 -5.7,2.3 h -79.9 c -2.4,0 -4.5,-0.3 -5.7,-2.3 z"
       fill="#d0dee6"
       id="path1006" />
    <path
       d="m 847,519.8 -0.2,0.4 c -0.4,0.5 -0.8,0.9 -1.3,1.1 h -14 c -2.3,0 -4.4,-0.3 -5.5,-1.8 l -0.2,-0.3 c 0,0 0,0 0,-0.1 V 518 H 847 Z"
       fill="#b6c2c9"
       id="path1008" />
    <rect
       x="859.40002"
       y="517.59998"
       width="45.900002"
       height="1.6"
       fill="#b6c2c9"
       id="rect1010" />
    <path
       d="m 847.5,517 11.9,-45.1 c 0.3,-1.2 1.5,-2.2 2.7,-2.2 h 64.4 c 1.2,0 1.9,1 1.6,2.2 L 916.3,517 Z"
       fill="#d0dee6"
       id="path1012" />
    <path
       d="m 884,493.4 c -0.6,2.3 0.8,4.2 3.1,4.2 2.3,0 4.7,-1.9 5.3,-4.2 0.6,-2.3 -0.8,-4.2 -3.1,-4.2 -2.4,0 -4.7,1.9 -5.3,4.2 z"
       fill="#b6c2c9"
       id="path1014" />
    <path
       d="m 1113,677 h 9.4 l -15.5,-150.1 h -13.6 z"
       fill="#acd5f4"
       id="path1016" />
    <path
       d="m 1094.2,533.8 6,45.5 7.1,-49 -0.4,-3.4 H 1095 Z"
       fill="#86bbd8"
       id="path1018" />
    <path
       d="m 807.5,677 h 9.4 L 801.4,526.9 h -13.6 z"
       fill="#acd5f4"
       id="path1020" />
    <path
       d="m 788.7,533.8 6,45.5 7,-49 -0.3,-3.4 h -11.9 z"
       fill="#86bbd8"
       id="path1022" />
    <path
       d="m 708.8,677 h -9.4 l 15.5,-150.1 h 13.7 z"
       fill="#acd5f4"
       id="path1024" />
    <path
       d="m 727.7,533.8 -18.3,46.3 5.2,-49.8 0.3,-3.4 h 12 z"
       fill="#86bbd8"
       id="path1026" />
    <rect
       x="701.79999"
       y="522"
       width="288.70001"
       height="8.8000002"
       fill="#367082"
       id="rect1028" />
    <rect
       style="fill:url(#paint2_radial)"
       x="809.90002"
       y="522"
       width="308.29999"
       height="8.8000002"
       fill="url(#paint2_radial)"
       id="rect1030" />
    <path
       d="m 1058,464.4 c 0,0 3.5,0.5 1.6,19.3 -2,18.8 -9,45.9 -9,45.9 l 0.8,-43.7 c -0.1,-0.1 1,-16.8 6.6,-21.5 z"
       fill="#e9d6b8"
       id="path1032" />
    <path
       d="m 1053.3,514.9 c -0.7,9 3.1,13.1 4.1,16.7 1,3.6 2.7,7.3 2.6,7.3 -3.3,-2.2 -3.2,-5.1 -4.2,-6.7 -1,-1.5 -0.5,-1.1 -0.9,2.1 -0.3,1.8 2.4,5.2 3.8,7.6 1.2,2.1 1.3,3.3 1.3,3.3 0,0 -2.8,-2.5 -4.9,-5.6 -2.6,-3.8 -4.6,-8.3 -4.9,-9.4 -0.5,-2 -0.3,-8 0.6,-12.2 0.8,-4.7 3,-9.6 2.5,-3.1 z"
       fill="#e9d6b8"
       id="path1034" />
    <path
       d="m 1059.6,689.6 -1.1,24.6 -15.5,1.2 -6.9,-0.8 13.7,-4.3 1.5,-20.5 z"
       fill="#e9d6b8"
       id="path1036" />
    <path
       d="m 1057.3,717.4 -3.4,0.4 -0.6,-0.9 -12.8,0.2 -6.2,-1.6 c 0,0 -0.3,-1.1 0.3,-1.4 1.7,-1 8.4,-1.5 8.4,-1.5 0,0 -0.9,1.2 -0.2,1.8 0.7,0.5 9.2,0.2 11.3,-0.1 3.6,-0.6 4.8,-1.7 4.9,-1.4 0.4,0.6 -1.7,4.5 -1.7,4.5 z"
       fill="#161711"
       id="path1038" />
    <path
       d="m 1054.9,511.2 -2.1,93.1 -6.3,91.3 14,1.1 c 0,0 13,-92 14.6,-100 1.5,-8 18.1,-71.8 10.4,-88.1 -7.9,-16.3 -30.6,2.6 -30.6,2.6 z"
       fill="#194866"
       id="path1040" />
    <path
       d="m 1109.5,459.4 c 7.8,9.4 11.7,48.1 11.7,48.1 0,0 -2.6,14.8 -16.9,-34.9 -4.3,-14.9 3.3,-15.5 5.2,-13.2 z"
       fill="#e9d6b8"
       id="path1042" />
    <path
       d="m 1117.9,540.9 3.2,-3.6 1.8,-3.5 0.5,-6.4 c 0,0 -0.3,-6.8 -1.4,-9.4 -1,-2.5 -0.8,-12.6 -1.2,-13.9 -0.4,-1.2 -6.7,-2.7 -6.7,-2.7 0,0 2.8,10.5 3.6,14.7 0.8,4.2 -0.3,10.7 0,12.4 0.4,2.9 1.5,5.1 1.5,5.1 0,0 0.2,-4.5 0.1,-5.7 -0.1,-1.2 1.3,-0.7 1.3,-0.7 0,0 0.4,6.3 -0.2,7.9 -0.6,1.7 -1.7,3 -1.7,3 z"
       fill="#e9d6b8"
       id="path1044" />
    <path
       d="m 1067.9,437.7 -5,52.4 v 3.1 l -15,-0.9 c 0,0 4.3,-40.5 5,-42.4 0.7,-2 2.2,-18.9 2,-22 -0.2,-3 0.4,-18.3 10.4,-16.8 10,1.6 2.6,26.6 2.6,26.6 z"
       fill="#2c7eea"
       id="path1046" />
    <path
       d="m 1100.4,437.7 5,52.4 v 3.1 l 15,-0.9 c -6.8,-30.7 -8.3,-36.8 -8.5,-42.4 -0.1,-2.1 -0.4,-18.9 -0.2,-22 0.2,-3 0.4,-11.3 -8.7,-16.8 -8.7,-5.1 -2.6,26.6 -2.6,26.6 z"
       fill="#2c7eea"
       id="path1048" />
    <path
       d="m 1084.2,686.8 0.2,31.6 13.1,-4.6 c 0,0 5.5,-4 0.8,-3.5 -7,0.8 -5.6,-2.2 -5.8,-7.8 -0.2,-5.7 0.9,-16.5 0.9,-16.5 z"
       fill="#e9d6b8"
       id="path1050" />
    <path
       d="m 1099.2,710.3 c 0,0 -1.5,1.4 -3,2.4 -1.5,1 -5.9,3.1 -7.6,3.5 -2.2,0.4 -4.2,0.2 -4.2,0.2 0,0 -1,3.3 1.2,3 2.2,-0.2 13.1,-5 14.6,-6.1 1.4,-1.1 1.6,-2.8 -1,-3 z"
       fill="#161711"
       id="path1052" />
    <path
       d="m 1087.1,512.9 -1.7,85.3 -1.5,90.5 11,-0.6 c 0,0 11.1,-91.1 12.1,-99.1 0.9,-8.1 14.3,-61.6 5.4,-77.3 -9,-15.6 -25.3,1.2 -25.3,1.2 z"
       fill="#194866"
       id="path1054" />
    <path
       d="m 1084.9,407.1 c 0,0 -17.1,1.2 -21.2,2.9 -4.1,1.7 -3.2,21.8 -0.6,36.6 2.6,14.8 1.5,31.3 -2.3,40.6 -3.8,9.3 -6.7,27 -6.7,27 l 60.1,-0.9 c 0,0 -13.6,-36.9 -13.6,-51.1 0,-14.2 3.8,-46.7 3.5,-49.9 -0.3,-3.1 -15.4,-5.2 -19.2,-5.2 z"
       fill="#2c5eea"
       id="path1056" />
    <path
       d="m 1098.4,381.2 c 0,8.3 -6.7,15 -15,15 l -3.8,-7.1 c -8.3,0 -15,-6.7 -15,-15 v -5.6 c 0,-8.3 6.7,-15 15,-15 h 3.8 c 8.3,0 15,6.7 15,15 z"
       fill="#194866"
       id="path1058" />
    <path
       d="m 1096.5,413.9 c 0,11.3 -9.4,20.5 -20.9,20.5 -11.5,0 -20.9,-9.2 -20.9,-20.5 0,-11.3 9.4,-20.5 20.9,-20.5 11.6,0.1 20.9,9.2 20.9,20.5 z"
       fill="#194866"
       id="path1060" />
    <path
       d="m 1106.8,423 c 0,11.3 -9.4,20.5 -20.9,20.5 -11.5,0 -20.9,-9.2 -20.9,-20.5 0,-11.3 9.4,-20.5 20.9,-20.5 11.6,0.1 20.9,9.2 20.9,20.5 z"
       fill="#194866"
       id="path1062" />
    <path
       d="m 1074.8,372.1 c -4.2,0 -6.9,1.2 -10.2,3.3 0.1,4.7 0.4,5.8 0.4,8.9 0,7.4 -2.1,12.5 -5.9,16.9 3.7,5.8 8.2,11.7 15.7,11.7 11.5,0 20.9,-9.2 20.9,-20.5 0,-11.2 -9.4,-20.3 -20.9,-20.3 z"
       fill="#194866"
       id="path1064" />
    <path
       d="m 1098.4,380.8 c 0,-0.4 0,-0.9 0.1,-1.3 -2.1,-0.7 -4.4,-1.1 -6.8,-1.1 -11.5,0 -20.9,9.2 -20.9,20.5 0,11.3 9.4,20.5 20.9,20.5 9.6,0 17.8,-6.4 20.2,-15.1 -8.2,-4.9 -13.5,-13.6 -13.5,-23.5 z"
       fill="#194866"
       id="path1066" />
    <path
       d="m 1117.8,415.6 c 0,7.9 -6.4,14.2 -14.2,14.2 -7.9,0 -14.2,-6.4 -14.2,-14.2 0,-7.9 6.4,-14.2 14.2,-14.2 7.8,0 14.2,6.4 14.2,14.2 z"
       fill="#194866"
       id="path1068" />
    <path
       d="m 620.7,687.9 c 0.6,-0.8 0.2,-2.8 0.2,-2.8 0,0 -11.1,-1.2 -14.7,-0.4 -0.9,0.2 -2.5,1 -4,1.9 -0.3,0.1 -0.7,1 -0.9,1.1 -0.5,0.3 -0.7,-0.2 -1.1,0.1 -1,0.6 -1.7,1.1 -1.7,1.2 -1,5.1 0.3,7.2 0.3,7.2 0,0 9.2,2.8 11.3,1 5.3,-4.9 9.3,-7.6 10.6,-9.3 z"
       fill="#161711"
       id="path1070" />
    <path
       d="m 656,692.1 1.6,8.3 h 8.5 c 0,0 0.5,-1.2 1.2,-1.2 0.6,0 1.4,1.2 2.2,1.2 1.8,0 3.8,0 4.5,0 1.6,0 17,0 17,0 0,0 0.4,-1.7 -0.1,-2.3 -0.2,-0.3 -1.7,-0.8 -2.6,-1.1 -4.4,-1.2 -16.9,-5.1 -19,-9.2 -2.8,-5.1 -13.3,4.3 -13.3,4.3 z"
       fill="#161711"
       id="path1072" />
    <path
       d="m 662.7,412.6 2,-10 c 0,0 7.1,0.6 8.5,-3.3 2.8,-7.7 0.5,-20 -1.2,-23.5 -4.8,-9.8 -6.8,-27 -29.4,-13.3 -8.6,5.2 4.7,30.4 5.6,35.9 1,5.5 -1.9,11.7 -1.9,11.7 l 5.3,3.9 z"
       fill="#e9d6b8"
       id="path1074" />
    <path
       d="m 622.7,507.7 -0.7,31.7 c 0,0 -11.9,-13.2 -13.1,-28.1 -1.2,-15 13,-4.8 13.8,-3.6 z"
       fill="#e2c59c"
       id="path1076" />
    <path
       d="m 636.1,573 c 0,0 3.3,1.4 -6.4,47.5 -7,33.2 -13,57.4 -15.8,68.4 -1.1,4.3 -2.3,3.5 -2.3,3.5 l -9.2,1 -4.4,-3.8 13.2,-75.2 z"
       fill="#163f59"
       id="path1078" />
    <path
       d="m 696.6,487.1 -18.9,36.3 c 0,0 36.1,-26.1 33.9,-40.5 -2.3,-14.4 -15,4.2 -15,4.2 z"
       fill="#e9d6b8"
       id="path1080" />
    <path
       d="m 622.5,422.4 c 0,0 -7.7,4.7 -13.2,42.8 -5.5,38.1 -2,36.7 -2,36.7 l 1,8.7 14.4,1.5 7.8,-32.9 z"
       fill="#b0bfde"
       id="path1082" />
    <path
       d="m 657.7,521.4 c 0,0 -21.2,87.7 -37.8,127 -9.7,23 -9.8,-21.2 -9.8,-21.2 l 15.1,-127.4 44.2,-2.1 c 0,0.1 -5,1.6 -11.7,23.7 z"
       fill="#163f59"
       id="path1084" />
    <path
       d="m 642.3,498 c 0,0 16,113.5 17.7,118.7 5.7,17.3 14.5,-5.4 16.5,-11.2 2,-5.8 5.4,-48.5 4.7,-79.8 -0.7,-31.2 -0.7,-31.2 -0.7,-31.2 z"
       fill="#163f59"
       id="path1086" />
    <path
       d="m 658.4,588.3 c 0,0 -2.4,13.5 -4.4,30.8 -1.5,12.7 -1.5,49 0.8,74.2 0.1,1.5 16.2,-3.1 16.2,-3.1 0,0 5.9,-70.5 7.2,-86.4 1.3,-15.8 -9.8,-26.8 -19.8,-15.5 z"
       fill="#163f59"
       id="path1088" />
    <path
       d="m 622,422.5 18.9,-8.6 5.2,-4.9 20.1,-0.5 3.5,5.8 15.6,6.8 c 0,0 3.8,6 0.5,28.5 -3.7,24.8 -4.5,62.4 -4.5,62.4 l -58.9,2.8 c 0,0 5.1,-80.2 -0.4,-92.3 z"
       fill="#d1dbea"
       id="path1090" />
    <path
       d="m 680.3,421.1 c 0,0 3.5,-3.9 12,6.7 14.6,18.1 21.6,40.5 23.1,44.9 1.5,4.3 3.4,10.5 -2.5,17.7 -4.6,5.5 -6,7.4 -6,7.4 l -13.1,-8.1 2.1,-3.9 1.5,-1.9 c 0,0 -7,-15.4 -14.6,-29.4 -7.6,-14.2 -2.5,-33.4 -2.5,-33.4 z"
       fill="#d1dbea"
       id="path1092" />
    <path
       d="m 665.6,378.7 c 0,0 -2.5,-1.6 -2.9,0.4 -0.4,2 1,6.3 2.1,6.7 1.2,0.4 1.6,5.7 1.6,5.7 l -3.1,5.9 h -15.8 c 0,0 -4.9,-2.2 -5.3,-5.7 -0.4,-3.5 -4.3,-28.4 -4.3,-28.4 l 11.2,-5.9 c 0,0 5.9,-2.9 10,-4.1 6.3,-1.8 7.6,1.6 7.4,3.3 -0.2,1.8 1.8,2 4.3,2 2.5,0 5.7,2 4.3,3.1 -0.6,0.5 2,2 1,3.9 -1.4,2.7 -6.2,3.5 -6.6,7.8 -0.3,2 -1.1,8.4 -3.9,5.3 z"
       fill="#194866"
       id="path1094" />
    <path
       d="m 710.2,491.4 c 0,0 -5.1,-3.5 -5.6,-3.8 -0.4,-0.3 -1.3,-0.6 -1.3,-0.6 l -3.7,1.2 2.1,1.8 c 0,0 -0.6,0.4 -1.6,0.3 -1,-0.1 -2.6,-0.1 -2.2,0.6 0.4,0.7 8.2,5.7 8.8,5.9 0.6,0 4.4,-3.8 3.5,-5.4 z"
       fill="#b0bfde"
       id="path1096" />
    <path
       d="m 1291.4,243.7 h -83.8 v 62.9 h 49.6 l 20,20.1 v -20.1 h 14.2 z"
       fill="#3dc7c9"
       id="path1098" />
    <path
       d="m 1054.2,362.8 c 0,3.4 -2.8,6.2 -6.2,6.2 h -33.8 c -3.4,0 -6.2,-2.8 -6.2,-6.2 V 329 c 0,-3.4 2.8,-6.2 6.2,-6.2 h 33.8 c 3.4,0 6.2,2.8 6.2,6.2 z"
       fill="#74b2e8"
       id="path1100" />
    <path
       d="m 1046.6,380.6 v -16.1 h -16.2 z"
       fill="#74b2e8"
       id="path1102" />
    <path
       d="m 928.4,388.2 c 0,7.5 -6.1,13.5 -13.5,13.5 h -85.1 c -7.5,0 -13.5,-6.1 -13.5,-13.5 v -52.5 c 0,-7.5 6.1,-13.5 13.5,-13.5 h 85.1 c 7.5,0 13.5,6.1 13.5,13.5 z"
       fill="#2c7eea"
       id="path1104" />
    <path
       d="m 836.8,416 v -15 h 15 z"
       fill="#2c7eea"
       id="path1106" />
    <path
       fill-rule="evenodd"
       clip-rule="evenodd"
       d="m 1029.5,351 c 0,2.9 -2.3,5.2 -5.2,5.2 -2.9,0 -5.2,-2.3 -5.2,-5.2 0,-2.9 2.3,-5.2 5.2,-5.2 2.9,0 5.2,2.3 5.2,5.2 z"
       stroke="#ffffff"
       stroke-width="5"
       id="path1108" />
    <path
       d="m 1028.3,347.1 15.5,-15.5"
       stroke="#ffffff"
       stroke-width="5"
       id="path1110" />
    <path
       d="m 1037.3,338.1 3.9,3.8"
       stroke="#ffffff"
       stroke-width="5"
       id="path1112" />
    <path
       d="m 1041.2,334.2 3.9,3.9"
       stroke="#ffffff"
       stroke-width="5"
       id="path1114" />
    <path
       fill-rule="evenodd"
       clip-rule="evenodd"
       d="m 1247.5,264.4 c 0,4.6 -3.7,8.3 -8.3,8.3 -4.6,0 -8.3,-3.7 -8.3,-8.3 0,-4.6 3.7,-8.3 8.3,-8.3 4.6,0 8.3,3.7 8.3,8.3 z m -3.3,0.1 c 0,-2.8 -2.3,-5 -5,-5 -2.7,0 -5,2.2 -5,5 0,2.8 2.3,5 5,5 2.8,0 5,-2.3 5,-5 z"
       fill="#ffffff"
       id="path1116" />
    <path
       fill-rule="evenodd"
       clip-rule="evenodd"
       d="m 1257.5,276 c 4.6,0 8.3,3.7 8.3,8.3 0,4.6 -3.8,8.3 -8.3,8.3 -4.6,0 -8.3,-3.7 -8.3,-8.3 0,-4.6 3.7,-8.3 8.3,-8.3 z m 0,3.3 c -2.8,0 -5,2.3 -5,5 0,2.8 2.2,5 5,5 2.8,0 5,-2.3 5,-5 0,-2.8 -2.3,-5 -5,-5 z"
       fill="#ffffff"
       id="path1118" />
    <path
       d="m 1252.5,259.5 h 9.2 l -30.3,30.3 2.3,2.3 30.4,-30.3 v 9.3 h 3.3 v -15 h -14.9 z"
       fill="#ffffff"
       id="path1120" />
    <path
       d="m 778.4,335 -8.8,-8.8 -8.5,7.2 c -3.4,-2.3 -7.2,-4 -11.1,-5 L 749.1,317 h -12.5 l -1,11.1 c -4,0.7 -7.8,2.2 -11.3,4.3 l -8.7,-7.4 -8.8,8.8 7.2,8.5 c -2.3,3.4 -4,7.2 -5,11.1 l -11.4,0.9 v 12.5 l 11.1,1 c 0.7,4 2.2,7.8 4.3,11.3 l -7.4,8.7 8.8,8.8 8.5,-7.2 c 3.4,2.3 7.2,4 11.1,5 l 0.9,11.4 h 12.5 l 1,-11.1 c 4,-0.7 7.8,-2.2 11.3,-4.3 l 8.7,7.4 8.8,-8.8 -7.2,-8.5 c 2.3,-3.4 4,-7.2 5,-11.1 l 11.4,-0.9 V 356 l -11.1,-1 c -0.7,-4 -2.2,-7.8 -4.3,-11.3 z"
       fill="#acd5f4"
       id="path1122" />
    <path
       d="m 742.2,336 v 5.6"
       stroke="#ffffff"
       stroke-width="5.0536"
       id="path1124" />
    <path
       d="m 755.5,339.6 -2.8,4.8"
       stroke="#ffffff"
       stroke-width="5.0536"
       id="path1126" />
    <path
       d="m 765.2,349.3 -4.8,2.8"
       stroke="#ffffff"
       stroke-width="5.0536"
       id="path1128" />
    <path
       d="m 768.8,362.6 h -5.6"
       stroke="#ffffff"
       stroke-width="5.0536"
       id="path1130" />
    <path
       d="m 765.2,375.9 -4.8,-2.7"
       stroke="#ffffff"
       stroke-width="5.0536"
       id="path1132" />
    <path
       d="m 755.5,385.7 -2.8,-4.8"
       stroke="#ffffff"
       stroke-width="5.0536"
       id="path1134" />
    <path
       d="m 742.2,389.2 v -5.5"
       stroke="#ffffff"
       stroke-width="5.0536"
       id="path1136" />
    <path
       d="m 728.9,385.7 2.7,-4.8"
       stroke="#ffffff"
       stroke-width="5.0536"
       id="path1138" />
    <path
       d="m 719.1,375.9 4.8,-2.7"
       stroke="#ffffff"
       stroke-width="5.0536"
       id="path1140" />
    <path
       d="m 715.6,362.6 h 5.5"
       stroke="#ffffff"
       stroke-width="5.0536"
       id="path1142" />
    <path
       d="m 719.1,349.3 4.8,2.8"
       stroke="#ffffff"
       stroke-width="5.0536"
       id="path1144" />
    <path
       d="m 728.9,339.6 2.7,4.8"
       stroke="#ffffff"
       stroke-width="5.0536"
       id="path1146" />
    <path
       d="m 754.8,348.4 -12.5,13 -10,-6.2"
       stroke="#ffffff"
       stroke-width="5.0536"
       id="path1148" />
    <path
       fill-rule="evenodd"
       clip-rule="evenodd"
       d="m 871,339.3 h 12.8 0.1 v -8.1 H 871 Z m 9.6,-3.2 h -6.4 v -1.6 h 6.4 z"
       fill="#ffffff"
       id="path1150" />
    <path
       d="m 877.4,387.6 c -12.4,0 -22.5,-10.1 -22.5,-22.5 h 3.2 c 0,10.7 8.7,19.3 19.3,19.3 10.7,0 19.3,-8.7 19.3,-19.3 0,-10.7 -8.7,-19.3 -19.3,-19.3 -9.5,0 -17.5,6.8 -19.1,16.1 l -3.2,-0.5 c 1.8,-10.9 11.2,-18.8 22.2,-18.8 12.4,0 22.5,10.1 22.5,22.5 0.1,12.4 -10,22.5 -22.4,22.5 z"
       fill="#ffffff"
       id="path1152" />
    <rect
       x="875.79999"
       y="337.70001"
       width="3.2"
       height="6.4000001"
       fill="#ffffff"
       id="rect1154" />
    <rect
       x="875.79999"
       y="349"
       width="3.2"
       height="17.700001"
       fill="#ffffff"
       id="rect1156" />
    <rect
       x="889.15198"
       y="347.78601"
       width="8.0004902"
       height="3.2002001"
       transform="rotate(-45.0041,889.152,347.786)"
       fill="#ffffff"
       id="rect1158" />
    <rect
       x="892.35797"
       y="342.08301"
       width="3.19997"
       height="6.7999301"
       transform="rotate(-44.9919,892.358,342.083)"
       fill="#ffffff"
       id="rect1160" />
    <path
       d="m 891.9,365.1 h -3.2 c 0,-5.1 -3.5,-9.6 -8.5,-10.9 l 0.8,-3.1 c 6.4,1.6 10.9,7.3 10.9,14 z"
       fill="#ffffff"
       id="path1162" />
    <rect
       x="848.40002"
       y="363.5"
       width="14.5"
       height="3.2"
       fill="#ffffff"
       id="rect1164" />
    <rect
       x="838.70001"
       y="363.5"
       width="6.4000001"
       height="3.2"
       fill="#ffffff"
       id="rect1166" />
    <rect
       x="838.70001"
       y="353.79999"
       width="11.3"
       height="3.2"
       fill="#ffffff"
       id="rect1168" />
    <rect
       x="843.59998"
       y="373.10001"
       width="9.6999998"
       height="3.2"
       fill="#ffffff"
       id="rect1170" />
    <g
       opacity="0.427874"
       filter="url(#filter0_f)"
       id="g1174">
      <rect
         x="953"
         y="76"
         width="132"
         height="132"
         rx="66"
         stroke="#6200ee"
         stroke-width="6"
         id="rect1172" />
    </g>
    <rect
       x="854"
       y="201"
       width="15"
       height="15"
       rx="7.5"
       stroke="#b8e986"
       stroke-width="3"
       id="rect1176" />
    <rect
       x="694.974"
       y="224.536"
       width="22"
       height="22"
       rx="4"
       transform="rotate(-30,694.974,224.536)"
       stroke="#f2c9f3"
       stroke-width="3"
       id="rect1178" />
    <rect
       x="1409.38"
       y="133.117"
       width="34"
       height="34"
       rx="4"
       transform="rotate(24,1409.38,133.117)"
       stroke="#03dac4"
       stroke-width="3"
       id="rect1180" />
    <rect
       x="512.43799"
       y="64"
       width="14"
       height="14"
       rx="7"
       transform="rotate(-30,512.438,64)"
       stroke="#c9f3d1"
       stroke-width="3"
       id="rect1182" />
  </g>
  <defs
     id="defs1208">
    <filter
       id="filter0_f"
       x="936.409"
       y="59.4086"
       width="165.183"
       height="165.183"
       filterUnits="userSpaceOnUse"
       color-interpolation-filters="sRGB">
      <feFlood
         flood-opacity="0"
         result="BackgroundImageFix"
         id="feFlood1186" />
      <feBlend
         mode="normal"
         in="SourceGraphic"
         in2="BackgroundImageFix"
         result="shape"
         id="feBlend1188" />
      <feGaussianBlur
         stdDeviation="6.7957"
         result="effect1_foregroundBlur"
         id="feGaussianBlur1190" />
    </filter>
    <linearGradient
       id="paint0_linear"
       x1="-143.832"
       y1="-9.5627203"
       x2="-398.29501"
       y2="208.231"
       gradientUnits="userSpaceOnUse">
      <stop
         stop-color="#FDFBFB"
         stop-opacity="0.01"
         id="stop1193" />
      <stop
         offset="1"
         stop-color="#00C4AA"
         id="stop1195" />
    </linearGradient>
    <linearGradient
       id="paint1_linear"
       x1="236.515"
       y1="281.88699"
       x2="211.349"
       y2="924.367"
       gradientUnits="userSpaceOnUse">
      <stop
         stop-color="#FDFBFB"
         stop-opacity="0.01"
         id="stop1198" />
      <stop
         offset="1"
         stop-color="#3B00DD"
         id="stop1200" />
    </linearGradient>
    <radialGradient
       id="paint2_radial"
       cx="0"
       cy="0"
       r="1"
       gradientUnits="userSpaceOnUse"
       gradientTransform="matrix(-284.768,0,0,-8.12831,1103.54,399.578)">
      <stop
         offset="0.00157402"
         stop-color="#CDF7F1"
         id="stop1203" />
      <stop
         offset="1"
         stop-color="#5DCFCA"
         id="stop1205" />
    </radialGradient>
  </defs>
</svg>
